<mxfile host="app.diagrams.net" modified="2023-03-14T05:58:02.541Z" agent="5.0 (Windows NT 10.0; Win64; x64) AppleWebKit/537.36 (KHTML, like Gecko) Chrome/111.0.0.0 Safari/537.36" etag="3EVzbTRLpUBztziA37g4" version="21.0.6" type="github">
  <diagram id="C5RBs43oDa-KdzZeNtuy" name="Page-1">
    <mxGraphModel dx="1050" dy="1742" grid="1" gridSize="10" guides="1" tooltips="1" connect="1" arrows="1" fold="1" page="1" pageScale="1" pageWidth="827" pageHeight="1169" math="0" shadow="0">
      <root>
        <mxCell id="WIyWlLk6GJQsqaUBKTNV-0" />
        <mxCell id="WIyWlLk6GJQsqaUBKTNV-1" parent="WIyWlLk6GJQsqaUBKTNV-0" />
        <mxCell id="foQUMzyyIrcbZpajRrtZ-10" value="" style="edgeStyle=orthogonalEdgeStyle;rounded=0;orthogonalLoop=1;jettySize=auto;html=1;exitX=1;exitY=0.5;exitDx=0;exitDy=0;" edge="1" parent="WIyWlLk6GJQsqaUBKTNV-1" source="foQUMzyyIrcbZpajRrtZ-25" target="foQUMzyyIrcbZpajRrtZ-9">
          <mxGeometry relative="1" as="geometry" />
        </mxCell>
        <mxCell id="foQUMzyyIrcbZpajRrtZ-26" value="" style="edgeStyle=orthogonalEdgeStyle;rounded=0;orthogonalLoop=1;jettySize=auto;html=1;" edge="1" parent="WIyWlLk6GJQsqaUBKTNV-1" source="WIyWlLk6GJQsqaUBKTNV-3" target="foQUMzyyIrcbZpajRrtZ-25">
          <mxGeometry relative="1" as="geometry" />
        </mxCell>
        <mxCell id="WIyWlLk6GJQsqaUBKTNV-3" value="Start the game" style="rounded=1;whiteSpace=wrap;html=1;fontSize=12;glass=0;strokeWidth=1;shadow=0;" parent="WIyWlLk6GJQsqaUBKTNV-1" vertex="1">
          <mxGeometry x="20" y="100" width="120" height="40" as="geometry" />
        </mxCell>
        <mxCell id="foQUMzyyIrcbZpajRrtZ-12" value="" style="edgeStyle=orthogonalEdgeStyle;rounded=0;orthogonalLoop=1;jettySize=auto;html=1;" edge="1" parent="WIyWlLk6GJQsqaUBKTNV-1" source="foQUMzyyIrcbZpajRrtZ-9" target="foQUMzyyIrcbZpajRrtZ-11">
          <mxGeometry relative="1" as="geometry" />
        </mxCell>
        <mxCell id="foQUMzyyIrcbZpajRrtZ-9" value="Explain the rules and the background settings of the game." style="whiteSpace=wrap;html=1;rounded=1;glass=0;strokeWidth=1;shadow=0;" vertex="1" parent="WIyWlLk6GJQsqaUBKTNV-1">
          <mxGeometry x="220" y="90" width="120" height="60" as="geometry" />
        </mxCell>
        <mxCell id="foQUMzyyIrcbZpajRrtZ-16" value="" style="edgeStyle=orthogonalEdgeStyle;rounded=0;orthogonalLoop=1;jettySize=auto;html=1;" edge="1" parent="WIyWlLk6GJQsqaUBKTNV-1" source="foQUMzyyIrcbZpajRrtZ-11" target="foQUMzyyIrcbZpajRrtZ-15">
          <mxGeometry relative="1" as="geometry" />
        </mxCell>
        <mxCell id="foQUMzyyIrcbZpajRrtZ-18" value="" style="edgeStyle=orthogonalEdgeStyle;rounded=0;orthogonalLoop=1;jettySize=auto;html=1;" edge="1" parent="WIyWlLk6GJQsqaUBKTNV-1" source="foQUMzyyIrcbZpajRrtZ-11" target="foQUMzyyIrcbZpajRrtZ-17">
          <mxGeometry relative="1" as="geometry" />
        </mxCell>
        <mxCell id="foQUMzyyIrcbZpajRrtZ-19" value="" style="edgeStyle=orthogonalEdgeStyle;rounded=0;orthogonalLoop=1;jettySize=auto;html=1;" edge="1" parent="WIyWlLk6GJQsqaUBKTNV-1" source="foQUMzyyIrcbZpajRrtZ-11" target="foQUMzyyIrcbZpajRrtZ-17">
          <mxGeometry relative="1" as="geometry" />
        </mxCell>
        <mxCell id="foQUMzyyIrcbZpajRrtZ-22" value="" style="edgeStyle=orthogonalEdgeStyle;rounded=0;orthogonalLoop=1;jettySize=auto;html=1;" edge="1" parent="WIyWlLk6GJQsqaUBKTNV-1" source="foQUMzyyIrcbZpajRrtZ-11" target="foQUMzyyIrcbZpajRrtZ-21">
          <mxGeometry relative="1" as="geometry" />
        </mxCell>
        <mxCell id="foQUMzyyIrcbZpajRrtZ-24" value="" style="edgeStyle=orthogonalEdgeStyle;rounded=0;orthogonalLoop=1;jettySize=auto;html=1;" edge="1" parent="WIyWlLk6GJQsqaUBKTNV-1" source="foQUMzyyIrcbZpajRrtZ-11" target="foQUMzyyIrcbZpajRrtZ-23">
          <mxGeometry relative="1" as="geometry" />
        </mxCell>
        <mxCell id="foQUMzyyIrcbZpajRrtZ-11" value="Prompt the user for action. (Print the options)" style="whiteSpace=wrap;html=1;rounded=1;glass=0;strokeWidth=1;shadow=0;" vertex="1" parent="WIyWlLk6GJQsqaUBKTNV-1">
          <mxGeometry x="420" y="90" width="120" height="60" as="geometry" />
        </mxCell>
        <mxCell id="foQUMzyyIrcbZpajRrtZ-15" value="Input- Move" style="shape=parallelogram;perimeter=parallelogramPerimeter;whiteSpace=wrap;html=1;fixedSize=1;rounded=1;glass=0;strokeWidth=1;shadow=0;" vertex="1" parent="WIyWlLk6GJQsqaUBKTNV-1">
          <mxGeometry x="310" y="190" width="120" height="60" as="geometry" />
        </mxCell>
        <mxCell id="foQUMzyyIrcbZpajRrtZ-28" value="" style="edgeStyle=orthogonalEdgeStyle;rounded=0;orthogonalLoop=1;jettySize=auto;html=1;" edge="1" parent="WIyWlLk6GJQsqaUBKTNV-1" source="foQUMzyyIrcbZpajRrtZ-17" target="foQUMzyyIrcbZpajRrtZ-27">
          <mxGeometry relative="1" as="geometry" />
        </mxCell>
        <mxCell id="foQUMzyyIrcbZpajRrtZ-17" value="Input- See stats" style="shape=parallelogram;perimeter=parallelogramPerimeter;whiteSpace=wrap;html=1;fixedSize=1;rounded=1;glass=0;strokeWidth=1;shadow=0;" vertex="1" parent="WIyWlLk6GJQsqaUBKTNV-1">
          <mxGeometry x="620" y="90" width="120" height="60" as="geometry" />
        </mxCell>
        <mxCell id="foQUMzyyIrcbZpajRrtZ-31" value="" style="edgeStyle=orthogonalEdgeStyle;rounded=0;orthogonalLoop=1;jettySize=auto;html=1;" edge="1" parent="WIyWlLk6GJQsqaUBKTNV-1" source="foQUMzyyIrcbZpajRrtZ-21" target="foQUMzyyIrcbZpajRrtZ-30">
          <mxGeometry relative="1" as="geometry" />
        </mxCell>
        <mxCell id="foQUMzyyIrcbZpajRrtZ-21" value="Input- Shop" style="shape=parallelogram;perimeter=parallelogramPerimeter;whiteSpace=wrap;html=1;fixedSize=1;rounded=1;glass=0;strokeWidth=1;shadow=0;" vertex="1" parent="WIyWlLk6GJQsqaUBKTNV-1">
          <mxGeometry x="530" y="190" width="120" height="60" as="geometry" />
        </mxCell>
        <mxCell id="foQUMzyyIrcbZpajRrtZ-23" value="Input- &lt;br&gt;Special Actions" style="shape=parallelogram;perimeter=parallelogramPerimeter;whiteSpace=wrap;html=1;fixedSize=1;rounded=1;glass=0;strokeWidth=1;shadow=0;" vertex="1" parent="WIyWlLk6GJQsqaUBKTNV-1">
          <mxGeometry x="420" y="300" width="120" height="60" as="geometry" />
        </mxCell>
        <mxCell id="foQUMzyyIrcbZpajRrtZ-25" value="Initialize the player stats" style="whiteSpace=wrap;html=1;rounded=1;glass=0;strokeWidth=1;shadow=0;" vertex="1" parent="WIyWlLk6GJQsqaUBKTNV-1">
          <mxGeometry x="20" y="210" width="120" height="60" as="geometry" />
        </mxCell>
        <mxCell id="foQUMzyyIrcbZpajRrtZ-29" style="edgeStyle=orthogonalEdgeStyle;rounded=0;orthogonalLoop=1;jettySize=auto;html=1;exitX=0;exitY=0.5;exitDx=0;exitDy=0;entryX=0.75;entryY=0;entryDx=0;entryDy=0;" edge="1" parent="WIyWlLk6GJQsqaUBKTNV-1" source="foQUMzyyIrcbZpajRrtZ-27" target="foQUMzyyIrcbZpajRrtZ-11">
          <mxGeometry relative="1" as="geometry" />
        </mxCell>
        <mxCell id="foQUMzyyIrcbZpajRrtZ-27" value="Format player stats and print the stats" style="whiteSpace=wrap;html=1;rounded=1;glass=0;strokeWidth=1;shadow=0;" vertex="1" parent="WIyWlLk6GJQsqaUBKTNV-1">
          <mxGeometry x="620" y="-50" width="120" height="60" as="geometry" />
        </mxCell>
        <mxCell id="foQUMzyyIrcbZpajRrtZ-33" value="" style="edgeStyle=orthogonalEdgeStyle;rounded=0;orthogonalLoop=1;jettySize=auto;html=1;" edge="1" parent="WIyWlLk6GJQsqaUBKTNV-1" source="foQUMzyyIrcbZpajRrtZ-30" target="foQUMzyyIrcbZpajRrtZ-32">
          <mxGeometry relative="1" as="geometry" />
        </mxCell>
        <mxCell id="foQUMzyyIrcbZpajRrtZ-38" value="" style="edgeStyle=orthogonalEdgeStyle;rounded=0;orthogonalLoop=1;jettySize=auto;html=1;" edge="1" parent="WIyWlLk6GJQsqaUBKTNV-1" source="foQUMzyyIrcbZpajRrtZ-30" target="foQUMzyyIrcbZpajRrtZ-37">
          <mxGeometry relative="1" as="geometry" />
        </mxCell>
        <mxCell id="foQUMzyyIrcbZpajRrtZ-30" value="Generate shop menu depending on the current player stats" style="whiteSpace=wrap;html=1;rounded=1;glass=0;strokeWidth=1;shadow=0;" vertex="1" parent="WIyWlLk6GJQsqaUBKTNV-1">
          <mxGeometry x="730" y="190" width="120" height="60" as="geometry" />
        </mxCell>
        <mxCell id="foQUMzyyIrcbZpajRrtZ-35" value="" style="edgeStyle=orthogonalEdgeStyle;rounded=0;orthogonalLoop=1;jettySize=auto;html=1;" edge="1" parent="WIyWlLk6GJQsqaUBKTNV-1" source="foQUMzyyIrcbZpajRrtZ-32" target="foQUMzyyIrcbZpajRrtZ-34">
          <mxGeometry relative="1" as="geometry" />
        </mxCell>
        <mxCell id="foQUMzyyIrcbZpajRrtZ-32" value="Buy Item" style="shape=parallelogram;perimeter=parallelogramPerimeter;whiteSpace=wrap;html=1;fixedSize=1;rounded=1;glass=0;strokeWidth=1;shadow=0;" vertex="1" parent="WIyWlLk6GJQsqaUBKTNV-1">
          <mxGeometry x="930" y="190" width="120" height="60" as="geometry" />
        </mxCell>
        <mxCell id="foQUMzyyIrcbZpajRrtZ-36" style="edgeStyle=orthogonalEdgeStyle;rounded=0;orthogonalLoop=1;jettySize=auto;html=1;exitX=0;exitY=0.5;exitDx=0;exitDy=0;entryX=0.5;entryY=1;entryDx=0;entryDy=0;" edge="1" parent="WIyWlLk6GJQsqaUBKTNV-1" source="foQUMzyyIrcbZpajRrtZ-34" target="foQUMzyyIrcbZpajRrtZ-30">
          <mxGeometry relative="1" as="geometry" />
        </mxCell>
        <mxCell id="foQUMzyyIrcbZpajRrtZ-34" value="Modify the player stats (Atk, Gold, etc.)" style="whiteSpace=wrap;html=1;rounded=1;glass=0;strokeWidth=1;shadow=0;" vertex="1" parent="WIyWlLk6GJQsqaUBKTNV-1">
          <mxGeometry x="930" y="330" width="120" height="60" as="geometry" />
        </mxCell>
        <mxCell id="foQUMzyyIrcbZpajRrtZ-39" style="edgeStyle=orthogonalEdgeStyle;rounded=0;orthogonalLoop=1;jettySize=auto;html=1;exitX=0;exitY=0.5;exitDx=0;exitDy=0;entryX=0.25;entryY=0;entryDx=0;entryDy=0;" edge="1" parent="WIyWlLk6GJQsqaUBKTNV-1" source="foQUMzyyIrcbZpajRrtZ-37" target="foQUMzyyIrcbZpajRrtZ-11">
          <mxGeometry relative="1" as="geometry" />
        </mxCell>
        <mxCell id="foQUMzyyIrcbZpajRrtZ-37" value="Input- Go Back" style="shape=parallelogram;perimeter=parallelogramPerimeter;whiteSpace=wrap;html=1;fixedSize=1;rounded=1;glass=0;strokeWidth=1;shadow=0;" vertex="1" parent="WIyWlLk6GJQsqaUBKTNV-1">
          <mxGeometry x="730" y="-140" width="120" height="60" as="geometry" />
        </mxCell>
      </root>
    </mxGraphModel>
  </diagram>
</mxfile>
